# xmcd CD database file
#
# Track frame offsets:
#	150
#	46045
#	67594
#	100509
#	130912
#	163235
#	198475
#	225801
#	255078
#	273593
#	292410
#
# Disc length: 4255 seconds
#
# Revision: 0
# Processed by: cddbd v1.4PL0 Copyright (c) Steve Scherf et al.
# Submitted via: Feurio! 1.63 - http://www.feurio.com
#
DISCID=8d109d0b
DTITLE=Jimmie Vaughan w/ Lou Ann Barton - Jacksonville,FL 2/14/02 #1
DYEAR=1900
DGENRE=Blues
TTITLE0=Dirty Girl
TTITLE1=Motorhead Baby
TTITLE2=Texas Flood
TTITLE3=Like a King
TTITLE4=Don't Cha Know
TTITLE5=The Deep End
TTITLE6=Let Me In
TTITLE7=Robbin' Me Blind
TTITLE8=Tin Pan Alley
TTITLE9=Power of Love
TTITLE10=Sugar Coated Love
EXTD=
EXTT0=
EXTT1=
EXTT2=
EXTT3=
EXTT4=
EXTT5=
EXTT6=
EXTT7=
EXTT8=
EXTT9=
EXTT10=
PLAYORDER=
